<?xml version="1.0" encoding="UTF-8"?>
<svg width="34px" height="46px" viewBox="0 0 34 46" version="1.1" xmlns="http://www.w3.org/2000/svg" xmlns:xlink="http://www.w3.org/1999/xlink">
    <!-- Generator: Sketch 45 (43475) - http://www.bohemiancoding.com/sketch -->
    <title>audio_outline_icon_2</title>
    <desc>Created with Sketch.</desc>
    <defs></defs>
    <g id="icons" stroke="none" stroke-width="1" fill="none" fill-rule="evenodd">
        <g id="icon" transform="translate(-82.000000, -183.000000)">
            <g id="menu" transform="translate(21.000000, 107.000000)">
                <g></g>
            </g>
            <g id="audio_outline_icon_2" transform="translate(82.000000, 183.000000)" fill-rule="nonzero" fill="#FFFFFF">
                <path d="M34,21 C34,20.447 33.552,20 33,20 C32.448,20 32,20.447 32,21 C32,29.271 25.271,36 17,36 C8.729,36 2,29.271 2,21 C2,20.447 1.552,20 1,20 C0.448,20 0,20.447 0,21 C0,30.036 7.092,37.427 16,37.949 L16,44 L7,44 C6.448,44 6,44.447 6,45 C6,45.553 6.448,46 7,46 L27,46 C27.552,46 28,45.553 28,45 C28,44.447 27.552,44 27,44 L18,44 L18,37.949 C26.908,37.427 34,30.036 34,21 Z" id="Shape"></path>
                <path d="M22,20 C22,19.447 22.448,19 23,19 L28,19 L28,14 L23,14 C22.448,14 22,13.553 22,13 C22,12.447 22.448,12 23,12 L28,12 L28,11 C28,4.935 23.065,0 17,0 C10.935,0 6,4.935 6,11 L6,12 L11,12 C11.552,12 12,12.447 12,13 C12,13.553 11.552,14 11,14 L6,14 L6,19 L11,19 C11.552,19 12,19.447 12,20 C12,20.553 11.552,21 11,21 L6,21 C6,27.065 10.935,32 17,32 C23.065,32 28,27.065 28,21 L23,21 C22.448,21 22,20.553 22,20 Z" id="Shape"></path>
            </g>
        </g>
    </g>
</svg>