<?xml version="1.0" encoding="UTF-8"?>
<svg width="46px" height="45px" viewBox="0 0 46 45" version="1.1" xmlns="http://www.w3.org/2000/svg" xmlns:xlink="http://www.w3.org/1999/xlink">
    <!-- Generator: Sketch 45 (43475) - http://www.bohemiancoding.com/sketch -->
    <title>notification_outline_icon_2</title>
    <desc>Created with Sketch.</desc>
    <defs></defs>
    <g id="icons" stroke="none" stroke-width="1" fill="none" fill-rule="evenodd">
        <g id="icon" transform="translate(-93.000000, -266.000000)">
            <g id="menu" transform="translate(21.000000, 107.000000)">
                <g></g>
            </g>
            <g id="notification_outline_icon_2" transform="translate(94.000000, 267.000000)" stroke="#FFFFFF" stroke-width="2">
                <path d="M29,8.1 C32.9,8.6 36,12 36,16 C36,20.1 32.9,23.4 29,23.9" id="Shape"></path>
                <path d="M16.7,24 L24,36.5 C25.1,38.4 24.5,40.9 22.6,42 L22.6,42 C20.7,43.1 18.2,42.5 17.1,40.6 L7.4,24" id="Shape"></path>
                <path d="M12,8 L4,8 C1.8,8 0,11.6 0,16 C0,20.4 1.8,24 4,24 L12,24" id="Shape" stroke-linecap="square"></path>
                <path d="M36,0 C30.1,0 24.9,3.2 22.2,8 L12,8 C9.8,8 8,11.6 8,16 C8,20.4 9.8,24 12,24 L22.2,24 C25,28.8 30.1,32 36,32" id="Shape"></path>
                <ellipse id="Oval" stroke-linecap="square" cx="36" cy="16" rx="8" ry="16"></ellipse>
            </g>
        </g>
    </g>
</svg>