<?xml version="1.0" encoding="UTF-8"?>
<svg width="46px" height="43px" viewBox="0 0 46 43" version="1.1" xmlns="http://www.w3.org/2000/svg" xmlns:xlink="http://www.w3.org/1999/xlink">
    <!-- Generator: Sketch 45 (43475) - http://www.bohemiancoding.com/sketch -->
    <title>notification_outline_icon_1</title>
    <desc>Created with Sketch.</desc>
    <defs></defs>
    <g id="icons" stroke="none" stroke-width="1" fill="none" fill-rule="evenodd">
        <g id="icon" transform="translate(-26.000000, -268.000000)" stroke-width="2" stroke="#FFFFFF">
            <g id="menu" transform="translate(21.000000, 107.000000)">
                <g id="notification_outline_icon_1">
                    <g transform="translate(6.000000, 163.000000)">
                        <g id="media-48px-outline-1_speaker">
                            <path d="M13.0812799,27.2631761 L16.7283608,35.504215 C17.4305817,37.1148642 16.7244757,39.0037254 15.1500635,39.7221087 L15.1500635,39.7221087 C13.5756512,40.440492 11.7292862,39.7181342 11.0270653,38.1074851 L4,22" id="Shape"></path>
                            <path d="M30,32 L14,22 L6,22 C2.686,22 0,19.314 0,16 L0,16 C0,12.686 2.686,10 6,10 L14,10 L30,0 L30,32 Z" id="Shape" stroke-linecap="square"></path>
                            <path d="M40,16 L44,16" id="Shape" stroke-linecap="square"></path>
                            <path d="M38,7 L41,5" id="Shape" stroke-linecap="square"></path>
                            <path d="M38,25 L41,27" id="Shape" stroke-linecap="square"></path>
                            <path d="M8,10 L8,22" id="Shape" stroke-linecap="square"></path>
                        </g>
                    </g>
                </g>
            </g>
        </g>
    </g>
</svg>