<?xml version="1.0" encoding="UTF-8"?>
<svg width="46px" height="43px" viewBox="0 0 46 43" version="1.1" xmlns="http://www.w3.org/2000/svg" xmlns:xlink="http://www.w3.org/1999/xlink">
    <!-- Generator: Sketch 45 (43475) - http://www.bohemiancoding.com/sketch -->
    <title>notification_glyph_icon_1</title>
    <desc>Created with Sketch.</desc>
    <defs></defs>
    <g id="icons" stroke="none" stroke-width="1" fill="none" fill-rule="evenodd">
        <g id="icon" transform="translate(-171.000000, -267.000000)">
            <g id="menu" transform="translate(21.000000, 107.000000)">
                <g></g>
            </g>
            <g id="notification_glyph_icon_1" transform="translate(171.000000, 267.000000)" fill-rule="nonzero" fill="#FFFFFF">
                <path d="M31.484,0.125 C31.168,-0.05 30.779,-0.042 30.469,0.152 L14.713,10 L7,10 C3.141,10 0,13.141 0,17 C0,20.859 3.141,24 7,24 L14.713,24 L30.47,33.848 C30.632,33.949 30.815,34 31,34 C31.167,34 31.334,33.958 31.484,33.875 C31.803,33.698 32,33.363 32,33 L32,1 C32,0.637 31.803,0.302 31.484,0.125 Z" id="Shape"></path>
                <path d="M45,18 L41,18 C40.447,18 40,17.553 40,17 C40,16.447 40.447,16 41,16 L45,16 C45.553,16 46,16.447 46,17 C46,17.553 45.553,18 45,18 Z" id="Shape"></path>
                <path d="M38.59,9 C38.244,9 37.908,8.821 37.723,8.5 C37.447,8.021 37.611,7.41 38.089,7.134 L41.553,5.134 C42.029,4.858 42.642,5.021 42.919,5.5 C43.195,5.979 43.031,6.59 42.553,6.866 L39.089,8.866 C38.932,8.957 38.76,9 38.59,9 Z" id="Shape"></path>
                <path d="M42.052,29 C41.882,29 41.71,28.957 41.553,28.866 L38.089,26.866 C37.61,26.59 37.446,25.978 37.723,25.5 C37.999,25.021 38.612,24.857 39.089,25.134 L42.553,27.134 C43.032,27.41 43.196,28.022 42.919,28.5 C42.733,28.821 42.397,29 42.052,29 Z" id="Shape"></path>
                <path d="M19.634,37.068 L14.705,26 L5.495,26 L11.938,40.503 C12.637,42.069 14.179,43 15.792,43 C16.365,43 16.947,42.882 17.503,42.634 C19.625,41.687 20.581,39.189 19.634,37.068 Z" id="Shape"></path>
            </g>
        </g>
    </g>
</svg>