<?xml version="1.0" encoding="UTF-8"?>
<svg width="46px" height="40px" viewBox="0 0 46 40" version="1.1" xmlns="http://www.w3.org/2000/svg" xmlns:xlink="http://www.w3.org/1999/xlink">
    <!-- Generator: Sketch 45 (43475) - http://www.bohemiancoding.com/sketch -->
    <title>camera_glyph_icon_1</title>
    <desc>Created with Sketch.</desc>
    <defs></defs>
    <g id="icons" stroke="none" stroke-width="1" fill="none" fill-rule="evenodd">
        <g id="icon" transform="translate(-100.000000, -107.000000)" fill-rule="nonzero" fill="#FFFFFF">
            <g id="menu" transform="translate(21.000000, 107.000000)">
                <g id="camera_glyph_icon_1">
                    <g transform="translate(79.000000, 0.000000)">
                        <path d="M6,6 L4,6 C1.794,6 0,7.794 0,10 L0,36 C0,38.206 1.794,40 4,40 L6,40 L6,6 Z" id="Shape"></path>
                        <path d="M42,6 L34.535,6 L30.833,0.445 C30.647,0.167 30.335,0 30.001,0 L20,0 C19.666,0 19.354,0.167 19.168,0.445 L15.465,6 L8,6 L8,40 L42,40 C44.206,40 46,38.206 46,36 L46,10 C46,7.794 44.206,6 42,6 Z M25,34 C18.935,34 14,29.065 14,23 C14,16.935 18.935,12 25,12 C31.065,12 36,16.935 36,23 C36,29.065 31.065,34 25,34 Z" id="Shape"></path>
                    </g>
                </g>
            </g>
        </g>
    </g>
</svg>