<?xml version="1.0" encoding="UTF-8"?>
<svg width="46px" height="46px" viewBox="0 0 46 46" version="1.1" xmlns="http://www.w3.org/2000/svg" xmlns:xlink="http://www.w3.org/1999/xlink">
    <!-- Generator: Sketch 45 (43475) - http://www.bohemiancoding.com/sketch -->
    <title>settings_outline_icon_2</title>
    <desc>Created with Sketch.</desc>
    <defs></defs>
    <g id="icons" stroke="none" stroke-width="1" fill="none" fill-rule="evenodd">
        <g id="icon" transform="translate(-158.000000, -406.000000)">
            <g id="menu" transform="translate(21.000000, 107.000000)">
                <g></g>
            </g>
            <g id="settings_outline_icon_2" transform="translate(158.000000, 406.000000)" fill-rule="nonzero" fill="#FFFFFF">
                <path d="M45.083,19.004 L39.393,18.529 C39.017,17.148 38.466,15.822 37.75,14.573 L41.441,10.21 C41.777,9.814 41.753,9.225 41.385,8.857 L37.142,4.615 C36.775,4.249 36.186,4.222 35.789,4.558 L31.426,8.25 C30.176,7.534 28.85,6.983 27.47,6.607 L26.996,0.917 C26.953,0.398 26.52,0 26,0 L20,0 C19.48,0 19.047,0.398 19.003,0.917 L18.529,6.607 C17.149,6.983 15.823,7.534 14.573,8.25 L10.21,4.559 C9.814,4.223 9.225,4.249 8.857,4.616 L4.615,8.857 C4.247,9.224 4.223,9.813 4.559,10.21 L8.25,14.573 C7.533,15.823 6.983,17.149 6.607,18.529 L0.917,19.004 C0.399,19.047 0,19.479 0,20 L0,26 C0,26.521 0.399,26.953 0.917,26.996 L6.607,27.471 C6.983,28.852 7.534,30.178 8.25,31.427 L4.559,35.788 C4.223,36.185 4.247,36.773 4.615,37.142 L8.858,41.385 C9.226,41.752 9.815,41.779 10.211,41.442 L14.574,37.751 C15.824,38.467 17.15,39.018 18.53,39.394 L19.004,45.084 C19.047,45.602 19.48,46 20,46 L26,46 C26.52,46 26.953,45.602 26.997,45.083 L27.471,39.393 C28.851,39.017 30.177,38.466 31.427,37.75 L35.79,41.441 C36.187,41.778 36.776,41.752 37.143,41.384 L41.386,37.141 C41.754,36.773 41.778,36.185 41.442,35.787 L37.751,31.426 C38.467,30.177 39.018,28.851 39.394,27.47 L45.084,26.995 C45.601,26.953 46,26.521 46,26 L46,20 C46,19.479 45.601,19.047 45.083,19.004 Z M23,30 C19.14,30 16,26.859 16,23 C16,19.141 19.14,16 23,16 C26.86,16 30,19.141 30,23 C30,26.859 26.86,30 23,30 Z" id="Shape"></path>
            </g>
        </g>
    </g>
</svg>